<mxfile host="app.diagrams.net" modified="2024-01-25T19:53:37.033Z" agent="Mozilla/5.0 (Windows NT 10.0; Win64; x64) AppleWebKit/537.36 (KHTML, like Gecko) Chrome/120.0.0.0 Safari/537.36" etag="VeKwQOliJ_3RftMGjti5" version="23.0.1" type="device">
  <diagram name="Página-1" id="ntOQxqrESAGy0E_WnEN3">
    <mxGraphModel dx="880" dy="571" grid="1" gridSize="10" guides="1" tooltips="1" connect="1" arrows="1" fold="1" page="1" pageScale="1" pageWidth="827" pageHeight="1169" math="0" shadow="0">
      <root>
        <mxCell id="0" />
        <mxCell id="1" parent="0" />
        <mxCell id="ZjBrLhM9BWAKbJE2HkMY-9" value="Fecha" style="swimlane;fontStyle=1;align=center;verticalAlign=top;childLayout=stackLayout;horizontal=1;startSize=26;horizontalStack=0;resizeParent=1;resizeParentMax=0;resizeLast=0;collapsible=1;marginBottom=0;whiteSpace=wrap;html=1;fontSize=16;fillColor=#60a917;fontColor=#ffffff;strokeColor=#2D7600;" parent="1" vertex="1">
          <mxGeometry x="160" y="540" width="200" height="340" as="geometry" />
        </mxCell>
        <mxCell id="ZjBrLhM9BWAKbJE2HkMY-10" value="&lt;font style=&quot;font-size: 12px;&quot;&gt;- dia: int&lt;br&gt;- mes: int&amp;nbsp;&lt;br&gt;- año: int&lt;/font&gt;" style="text;strokeColor=none;fillColor=none;align=left;verticalAlign=top;spacingLeft=4;spacingRight=4;overflow=hidden;rotatable=0;points=[[0,0.5],[1,0.5]];portConstraint=eastwest;whiteSpace=wrap;html=1;fontSize=16;" parent="ZjBrLhM9BWAKbJE2HkMY-9" vertex="1">
          <mxGeometry y="26" width="200" height="74" as="geometry" />
        </mxCell>
        <mxCell id="ZjBrLhM9BWAKbJE2HkMY-11" value="" style="line;strokeWidth=1;fillColor=none;align=left;verticalAlign=middle;spacingTop=-1;spacingLeft=3;spacingRight=3;rotatable=0;labelPosition=right;points=[];portConstraint=eastwest;strokeColor=inherit;fontSize=16;" parent="ZjBrLhM9BWAKbJE2HkMY-9" vertex="1">
          <mxGeometry y="100" width="200" height="8" as="geometry" />
        </mxCell>
        <mxCell id="ZjBrLhM9BWAKbJE2HkMY-12" value="&lt;span style=&quot;font-size: 12px;&quot;&gt;+ Fecha(): void&lt;br&gt;+ Fecha(dia,mes,año): void&lt;br&gt;+ setDia(int dia): void&amp;nbsp;&lt;br&gt;+ setMes(int mes): void&lt;br&gt;+ setAño(int año): void&lt;br&gt;+ getDia: int&lt;br&gt;+ getMes: int&lt;br&gt;+&amp;nbsp; getAño: int&lt;br&gt;+ fechaCorrecta(): boolean&lt;br&gt;- esBisiesto(): boolean&lt;br&gt;@toString(): String&lt;br&gt;&lt;br&gt;&lt;/span&gt;" style="text;strokeColor=none;fillColor=none;align=left;verticalAlign=top;spacingLeft=4;spacingRight=4;overflow=hidden;rotatable=0;points=[[0,0.5],[1,0.5]];portConstraint=eastwest;whiteSpace=wrap;html=1;fontSize=16;" parent="ZjBrLhM9BWAKbJE2HkMY-9" vertex="1">
          <mxGeometry y="108" width="200" height="232" as="geometry" />
        </mxCell>
        <mxCell id="ZjBrLhM9BWAKbJE2HkMY-13" value="DNI" style="swimlane;fontStyle=1;align=center;verticalAlign=top;childLayout=stackLayout;horizontal=1;startSize=26;horizontalStack=0;resizeParent=1;resizeParentMax=0;resizeLast=0;collapsible=1;marginBottom=0;whiteSpace=wrap;html=1;fillColor=#008a00;fontColor=#ffffff;strokeColor=#005700;" parent="1" vertex="1">
          <mxGeometry x="500" y="660" width="225" height="190" as="geometry">
            <mxRectangle x="510" y="590" width="60" height="30" as="alternateBounds" />
          </mxGeometry>
        </mxCell>
        <mxCell id="ZjBrLhM9BWAKbJE2HkMY-14" value="# numDNI: int&lt;br&gt;+ LETRAS_DNI: String" style="text;strokeColor=none;fillColor=none;align=left;verticalAlign=top;spacingLeft=4;spacingRight=4;overflow=hidden;rotatable=0;points=[[0,0.5],[1,0.5]];portConstraint=eastwest;whiteSpace=wrap;html=1;" parent="ZjBrLhM9BWAKbJE2HkMY-13" vertex="1">
          <mxGeometry y="26" width="225" height="44" as="geometry" />
        </mxCell>
        <mxCell id="ZjBrLhM9BWAKbJE2HkMY-15" value="" style="line;strokeWidth=1;fillColor=none;align=left;verticalAlign=middle;spacingTop=-1;spacingLeft=3;spacingRight=3;rotatable=0;labelPosition=right;points=[];portConstraint=eastwest;strokeColor=inherit;" parent="ZjBrLhM9BWAKbJE2HkMY-13" vertex="1">
          <mxGeometry y="70" width="225" height="8" as="geometry" />
        </mxCell>
        <mxCell id="ZjBrLhM9BWAKbJE2HkMY-16" value="+ establecer(String nif): void&lt;br&gt;+ obtenerNIF():String&lt;br&gt;+ obtenerDNI(): int&lt;br&gt;- extraerLetraNIF(String nif): char&lt;br&gt;- extraerNumeroNIF(String nif): int&lt;br&gt;- calcularLetraNIF(int numeroDNI): char&lt;br&gt;+ validarNIF(String nif):boolean" style="text;strokeColor=none;fillColor=none;align=left;verticalAlign=top;spacingLeft=4;spacingRight=4;overflow=hidden;rotatable=0;points=[[0,0.5],[1,0.5]];portConstraint=eastwest;whiteSpace=wrap;html=1;" parent="ZjBrLhM9BWAKbJE2HkMY-13" vertex="1">
          <mxGeometry y="78" width="225" height="112" as="geometry" />
        </mxCell>
        <mxCell id="ZjBrLhM9BWAKbJE2HkMY-17" value="Persona" style="swimlane;fontStyle=1;align=center;verticalAlign=top;childLayout=stackLayout;horizontal=1;startSize=26;horizontalStack=0;resizeParent=1;resizeParentMax=0;resizeLast=0;collapsible=1;marginBottom=0;whiteSpace=wrap;html=1;fillColor=#FF8000;strokeColor=#d79b00;" parent="1" vertex="1">
          <mxGeometry x="280" y="950" width="310" height="300" as="geometry" />
        </mxCell>
        <mxCell id="ZjBrLhM9BWAKbJE2HkMY-18" value="# nombre: String&lt;br&gt;# apellido: String&lt;br&gt;# fechaNacimiento: Fecha&lt;br&gt;# dni: DNI&lt;br&gt;- nif: String" style="text;strokeColor=none;fillColor=none;align=left;verticalAlign=top;spacingLeft=4;spacingRight=4;overflow=hidden;rotatable=0;points=[[0,0.5],[1,0.5]];portConstraint=eastwest;whiteSpace=wrap;html=1;" parent="ZjBrLhM9BWAKbJE2HkMY-17" vertex="1">
          <mxGeometry y="26" width="310" height="84" as="geometry" />
        </mxCell>
        <mxCell id="ZjBrLhM9BWAKbJE2HkMY-19" value="" style="line;strokeWidth=1;fillColor=none;align=left;verticalAlign=middle;spacingTop=-1;spacingLeft=3;spacingRight=3;rotatable=0;labelPosition=right;points=[];portConstraint=eastwest;strokeColor=inherit;" parent="ZjBrLhM9BWAKbJE2HkMY-17" vertex="1">
          <mxGeometry y="110" width="310" height="8" as="geometry" />
        </mxCell>
        <mxCell id="ZjBrLhM9BWAKbJE2HkMY-20" value="+ Persona()&lt;br&gt;+ Persona(nombre, apellido, fechaNacimiento, dni)&lt;br&gt;+ getNombre(): String&lt;br&gt;+ getApellido(): String&lt;br&gt;+ getFechaNacimiento(): Fecha&lt;br&gt;+ getDni(): DNI&amp;nbsp;&lt;br&gt;+ setNombre(String nombre): void&lt;br&gt;+ setApellido(String apellido):void&lt;br&gt;+ setFechaNacimiento(Fecha fechaNacimiento): void&lt;br&gt;+ setDni (DNI dni): void" style="text;strokeColor=none;fillColor=none;align=left;verticalAlign=top;spacingLeft=4;spacingRight=4;overflow=hidden;rotatable=0;points=[[0,0.5],[1,0.5]];portConstraint=eastwest;whiteSpace=wrap;html=1;" parent="ZjBrLhM9BWAKbJE2HkMY-17" vertex="1">
          <mxGeometry y="118" width="310" height="182" as="geometry" />
        </mxCell>
        <mxCell id="ZjBrLhM9BWAKbJE2HkMY-22" value="Alumno" style="swimlane;fontStyle=1;align=center;verticalAlign=top;childLayout=stackLayout;horizontal=1;startSize=26;horizontalStack=0;resizeParent=1;resizeParentMax=0;resizeLast=0;collapsible=1;marginBottom=0;whiteSpace=wrap;html=1;fillColor=#FFFF66;strokeColor=#d79b00;" parent="1" vertex="1">
          <mxGeometry x="160" y="1320" width="220" height="220" as="geometry" />
        </mxCell>
        <mxCell id="ZjBrLhM9BWAKbJE2HkMY-23" value="- edad: int" style="text;strokeColor=none;fillColor=none;align=left;verticalAlign=top;spacingLeft=4;spacingRight=4;overflow=hidden;rotatable=0;points=[[0,0.5],[1,0.5]];portConstraint=eastwest;whiteSpace=wrap;html=1;" parent="ZjBrLhM9BWAKbJE2HkMY-22" vertex="1">
          <mxGeometry y="26" width="220" height="34" as="geometry" />
        </mxCell>
        <mxCell id="ZjBrLhM9BWAKbJE2HkMY-24" value="" style="line;strokeWidth=1;fillColor=none;align=left;verticalAlign=middle;spacingTop=-1;spacingLeft=3;spacingRight=3;rotatable=0;labelPosition=right;points=[];portConstraint=eastwest;strokeColor=inherit;" parent="ZjBrLhM9BWAKbJE2HkMY-22" vertex="1">
          <mxGeometry y="60" width="220" height="8" as="geometry" />
        </mxCell>
        <mxCell id="ZjBrLhM9BWAKbJE2HkMY-25" value="+ Alumno()&lt;br style=&quot;border-color: var(--border-color);&quot;&gt;+ Alumno(nombre, apellido, fechaNacimiento, dni )&lt;br style=&quot;border-color: var(--border-color);&quot;&gt;+ setEdad(int edad): void&lt;br style=&quot;border-color: var(--border-color);&quot;&gt;+ getEdad(): int&lt;br style=&quot;border-color: var(--border-color);&quot;&gt;+ calcularEdad(): void&lt;br&gt;&lt;br&gt;@ToString(): String" style="text;strokeColor=none;fillColor=none;align=left;verticalAlign=top;spacingLeft=4;spacingRight=4;overflow=hidden;rotatable=0;points=[[0,0.5],[1,0.5]];portConstraint=eastwest;whiteSpace=wrap;html=1;" parent="ZjBrLhM9BWAKbJE2HkMY-22" vertex="1">
          <mxGeometry y="68" width="220" height="152" as="geometry" />
        </mxCell>
        <mxCell id="ZjBrLhM9BWAKbJE2HkMY-26" value="" style="shape=flexArrow;endArrow=classic;html=1;rounded=0;exitX=0.5;exitY=0;exitDx=0;exitDy=0;entryX=0.281;entryY=1.036;entryDx=0;entryDy=0;entryPerimeter=0;" parent="1" source="ZjBrLhM9BWAKbJE2HkMY-22" target="ZjBrLhM9BWAKbJE2HkMY-20" edge="1">
          <mxGeometry width="50" height="50" relative="1" as="geometry">
            <mxPoint x="340" y="1240" as="sourcePoint" />
            <mxPoint x="390" y="1190" as="targetPoint" />
          </mxGeometry>
        </mxCell>
        <mxCell id="ZjBrLhM9BWAKbJE2HkMY-27" value="Profesor" style="swimlane;fontStyle=1;align=center;verticalAlign=top;childLayout=stackLayout;horizontal=1;startSize=26;horizontalStack=0;resizeParent=1;resizeParentMax=0;resizeLast=0;collapsible=1;marginBottom=0;whiteSpace=wrap;html=1;fillColor=#dae8fc;strokeColor=#6c8ebf;" parent="1" vertex="1">
          <mxGeometry x="510" y="1320" width="220" height="250" as="geometry" />
        </mxCell>
        <mxCell id="ZjBrLhM9BWAKbJE2HkMY-28" value="- cuenta: String&lt;br&gt;- nomina: double" style="text;strokeColor=none;fillColor=none;align=left;verticalAlign=top;spacingLeft=4;spacingRight=4;overflow=hidden;rotatable=0;points=[[0,0.5],[1,0.5]];portConstraint=eastwest;whiteSpace=wrap;html=1;" parent="ZjBrLhM9BWAKbJE2HkMY-27" vertex="1">
          <mxGeometry y="26" width="220" height="44" as="geometry" />
        </mxCell>
        <mxCell id="ZjBrLhM9BWAKbJE2HkMY-29" value="" style="line;strokeWidth=1;fillColor=none;align=left;verticalAlign=middle;spacingTop=-1;spacingLeft=3;spacingRight=3;rotatable=0;labelPosition=right;points=[];portConstraint=eastwest;strokeColor=inherit;" parent="ZjBrLhM9BWAKbJE2HkMY-27" vertex="1">
          <mxGeometry y="70" width="220" height="8" as="geometry" />
        </mxCell>
        <mxCell id="ZjBrLhM9BWAKbJE2HkMY-30" value="+ Profesor()&lt;br&gt;+ Profesor(nombre, apellido, fechaNacimiento, dni, cuenta, nomina)&lt;br&gt;+ setCuenta(String cuenta): void&lt;br&gt;+ setNomina (double nomina):void&lt;br&gt;+ getCuenta(): String&lt;br&gt;+ getNomina(): double&lt;br&gt;+ validarCuenta(): boolean&lt;br&gt;@ toString(): String" style="text;strokeColor=none;fillColor=none;align=left;verticalAlign=top;spacingLeft=4;spacingRight=4;overflow=hidden;rotatable=0;points=[[0,0.5],[1,0.5]];portConstraint=eastwest;whiteSpace=wrap;html=1;" parent="ZjBrLhM9BWAKbJE2HkMY-27" vertex="1">
          <mxGeometry y="78" width="220" height="172" as="geometry" />
        </mxCell>
        <mxCell id="ZjBrLhM9BWAKbJE2HkMY-31" value="" style="shape=flexArrow;endArrow=classic;html=1;rounded=0;exitX=0.405;exitY=-0.01;exitDx=0;exitDy=0;entryX=0.731;entryY=1.045;entryDx=0;entryDy=0;entryPerimeter=0;exitPerimeter=0;" parent="1" source="ZjBrLhM9BWAKbJE2HkMY-27" target="ZjBrLhM9BWAKbJE2HkMY-20" edge="1">
          <mxGeometry width="50" height="50" relative="1" as="geometry">
            <mxPoint x="420" y="1290" as="sourcePoint" />
            <mxPoint x="555" y="1214" as="targetPoint" />
          </mxGeometry>
        </mxCell>
        <mxCell id="-aJ8sUCj20-bcAvnw94q-2" value="" style="endArrow=diamondThin;endFill=1;endSize=24;html=1;rounded=0;fontSize=12;curved=1;entryX=0.384;entryY=-0.01;entryDx=0;entryDy=0;entryPerimeter=0;exitX=0.83;exitY=1.009;exitDx=0;exitDy=0;exitPerimeter=0;" edge="1" parent="1" source="ZjBrLhM9BWAKbJE2HkMY-12" target="ZjBrLhM9BWAKbJE2HkMY-17">
          <mxGeometry width="160" relative="1" as="geometry">
            <mxPoint x="350" y="820" as="sourcePoint" />
            <mxPoint x="510" y="820" as="targetPoint" />
          </mxGeometry>
        </mxCell>
        <mxCell id="-aJ8sUCj20-bcAvnw94q-3" value="" style="endArrow=diamondThin;endFill=1;endSize=24;html=1;rounded=0;fontSize=12;curved=1;entryX=0.623;entryY=0.003;entryDx=0;entryDy=0;entryPerimeter=0;exitX=0.173;exitY=1.027;exitDx=0;exitDy=0;exitPerimeter=0;" edge="1" parent="1" source="ZjBrLhM9BWAKbJE2HkMY-16" target="ZjBrLhM9BWAKbJE2HkMY-17">
          <mxGeometry width="160" relative="1" as="geometry">
            <mxPoint x="296" y="882" as="sourcePoint" />
            <mxPoint x="409" y="957" as="targetPoint" />
          </mxGeometry>
        </mxCell>
      </root>
    </mxGraphModel>
  </diagram>
</mxfile>
